<mxfile host="Electron" modified="2023-04-07T16:07:15.172Z" agent="Mozilla/5.0 (Windows NT 10.0; Win64; x64) AppleWebKit/537.36 (KHTML, like Gecko) draw.io/21.1.2 Chrome/106.0.5249.199 Electron/21.4.3 Safari/537.36" etag="oJ5wUvTUWN9skDCFiewg" version="21.1.2" type="device" pages="5">
  <diagram name="Main Proccess" id="BZkoMewDt5e1nhyTD6TO">
    <mxGraphModel dx="2074" dy="1244" grid="1" gridSize="10" guides="1" tooltips="1" connect="1" arrows="1" fold="1" page="1" pageScale="1" pageWidth="1200" pageHeight="1600" math="0" shadow="0">
      <root>
        <mxCell id="0" />
        <mxCell id="1" parent="0" />
        <mxCell id="6zEdD9K2JlOQMSVLethB-3" style="edgeStyle=orthogonalEdgeStyle;rounded=0;orthogonalLoop=1;jettySize=auto;html=1;entryX=0.5;entryY=0;entryDx=0;entryDy=0;" edge="1" parent="1" source="6zEdD9K2JlOQMSVLethB-1" target="6zEdD9K2JlOQMSVLethB-2">
          <mxGeometry relative="1" as="geometry">
            <Array as="points" />
          </mxGeometry>
        </mxCell>
        <mxCell id="6zEdD9K2JlOQMSVLethB-4" value="Prompt" style="edgeLabel;html=1;align=center;verticalAlign=middle;resizable=0;points=[];" vertex="1" connectable="0" parent="6zEdD9K2JlOQMSVLethB-3">
          <mxGeometry x="-0.0166" y="1" relative="1" as="geometry">
            <mxPoint as="offset" />
          </mxGeometry>
        </mxCell>
        <mxCell id="6zEdD9K2JlOQMSVLethB-1" value="Entry" style="rounded=0;whiteSpace=wrap;html=1;" vertex="1" parent="1">
          <mxGeometry x="560" y="40" width="80" height="40" as="geometry" />
        </mxCell>
        <mxCell id="6zEdD9K2JlOQMSVLethB-2" value="Home" style="rounded=0;whiteSpace=wrap;html=1;" vertex="1" parent="1">
          <mxGeometry x="560" y="160" width="80" height="40" as="geometry" />
        </mxCell>
      </root>
    </mxGraphModel>
  </diagram>
  <diagram id="xCTsXqgBZO-dcqeWA6Uv" name="Home">
    <mxGraphModel dx="1481" dy="889" grid="1" gridSize="10" guides="1" tooltips="1" connect="1" arrows="1" fold="1" page="1" pageScale="1" pageWidth="1200" pageHeight="1600" math="0" shadow="0">
      <root>
        <mxCell id="0" />
        <mxCell id="1" parent="0" />
        <mxCell id="66UmW_laMhGOvACvovUv-8" value="" style="rounded=0;whiteSpace=wrap;html=1;" vertex="1" parent="1">
          <mxGeometry x="200" y="960" width="840" height="480" as="geometry" />
        </mxCell>
        <mxCell id="66UmW_laMhGOvACvovUv-17" value="" style="rounded=0;whiteSpace=wrap;html=1;" vertex="1" parent="1">
          <mxGeometry x="660" y="1050" width="340" height="360" as="geometry" />
        </mxCell>
        <mxCell id="KkKBU-Pn6hAcBDRM-jmI-6" value="" style="rounded=0;whiteSpace=wrap;html=1;" vertex="1" parent="1">
          <mxGeometry x="975" y="1050" width="10" height="230" as="geometry" />
        </mxCell>
        <mxCell id="KkKBU-Pn6hAcBDRM-jmI-10" value="" style="rounded=0;whiteSpace=wrap;html=1;" vertex="1" parent="1">
          <mxGeometry x="660" y="1050" width="340" height="50" as="geometry" />
        </mxCell>
        <mxCell id="66UmW_laMhGOvACvovUv-1" value="Home Class" style="swimlane;whiteSpace=wrap;html=1;startSize=40;" vertex="1" parent="1">
          <mxGeometry x="440" y="40" width="320" height="400" as="geometry" />
        </mxCell>
        <mxCell id="66UmW_laMhGOvACvovUv-7" value="" style="endArrow=none;html=1;rounded=0;" edge="1" parent="1">
          <mxGeometry width="50" height="50" relative="1" as="geometry">
            <mxPoint x="40" y="800" as="sourcePoint" />
            <mxPoint x="1160" y="800" as="targetPoint" />
          </mxGeometry>
        </mxCell>
        <mxCell id="66UmW_laMhGOvACvovUv-9" value="&lt;font style=&quot;font-size: 56px;&quot;&gt;Qz&lt;/font&gt;" style="text;html=1;strokeColor=none;fillColor=none;align=center;verticalAlign=middle;whiteSpace=wrap;rounded=0;fontSize=64;" vertex="1" parent="1">
          <mxGeometry x="445" y="960" width="310" height="70" as="geometry" />
        </mxCell>
        <mxCell id="66UmW_laMhGOvACvovUv-10" value="Settings" style="rounded=1;whiteSpace=wrap;html=1;" vertex="1" parent="1">
          <mxGeometry x="270" y="1267.5" width="230" height="60" as="geometry" />
        </mxCell>
        <mxCell id="66UmW_laMhGOvACvovUv-13" value="Exit" style="rounded=1;whiteSpace=wrap;html=1;" vertex="1" parent="1">
          <mxGeometry x="270" y="1340" width="230" height="60" as="geometry" />
        </mxCell>
        <mxCell id="66UmW_laMhGOvACvovUv-18" value="list 1" style="rounded=1;whiteSpace=wrap;html=1;" vertex="1" parent="1">
          <mxGeometry x="670" y="1190" width="290" height="50" as="geometry" />
        </mxCell>
        <mxCell id="66UmW_laMhGOvACvovUv-19" value="list 2" style="rounded=1;whiteSpace=wrap;html=1;" vertex="1" parent="1">
          <mxGeometry x="670" y="1320" width="290" height="50" as="geometry" />
        </mxCell>
        <mxCell id="66UmW_laMhGOvACvovUv-20" value="list ..." style="rounded=1;whiteSpace=wrap;html=1;" vertex="1" parent="1">
          <mxGeometry x="670" y="1380" width="290" height="30" as="geometry" />
        </mxCell>
        <mxCell id="IXn8Jmz7SbYyYIPCcoO4-1" value="Lists" style="text;html=1;strokeColor=none;fillColor=none;align=center;verticalAlign=middle;whiteSpace=wrap;rounded=0;" vertex="1" parent="1">
          <mxGeometry x="750" y="1057.5" width="160" height="30" as="geometry" />
        </mxCell>
        <mxCell id="KkKBU-Pn6hAcBDRM-jmI-1" value="Eddit" style="rounded=1;whiteSpace=wrap;html=1;" vertex="1" parent="1">
          <mxGeometry x="270" y="1200" width="230" height="60" as="geometry" />
        </mxCell>
        <mxCell id="37lC6BA61AARFOCetgNf-2" value="" style="edgeStyle=orthogonalEdgeStyle;rounded=0;orthogonalLoop=1;jettySize=auto;html=1;" edge="1" parent="1" source="KkKBU-Pn6hAcBDRM-jmI-2" target="37lC6BA61AARFOCetgNf-1">
          <mxGeometry relative="1" as="geometry" />
        </mxCell>
        <mxCell id="KkKBU-Pn6hAcBDRM-jmI-2" value="delete" style="rounded=1;whiteSpace=wrap;html=1;" vertex="1" parent="1">
          <mxGeometry x="270" y="1130" width="230" height="60" as="geometry" />
        </mxCell>
        <mxCell id="KkKBU-Pn6hAcBDRM-jmI-3" value="play" style="rounded=1;whiteSpace=wrap;html=1;" vertex="1" parent="1">
          <mxGeometry x="270" y="1060" width="230" height="60" as="geometry" />
        </mxCell>
        <mxCell id="KkKBU-Pn6hAcBDRM-jmI-4" value="list 1" style="rounded=1;whiteSpace=wrap;html=1;" vertex="1" parent="1">
          <mxGeometry x="670" y="1255" width="290" height="50" as="geometry" />
        </mxCell>
        <mxCell id="KkKBU-Pn6hAcBDRM-jmI-5" value="" style="rounded=0;whiteSpace=wrap;html=1;" vertex="1" parent="1">
          <mxGeometry x="970" y="1280" width="20" height="60" as="geometry" />
        </mxCell>
        <mxCell id="KkKBU-Pn6hAcBDRM-jmI-7" value="" style="rounded=0;whiteSpace=wrap;html=1;" vertex="1" parent="1">
          <mxGeometry x="975" y="1340" width="10" height="70" as="geometry" />
        </mxCell>
        <mxCell id="KkKBU-Pn6hAcBDRM-jmI-9" value="new list..." style="rounded=1;whiteSpace=wrap;html=1;" vertex="1" parent="1">
          <mxGeometry x="670" y="1120" width="290" height="60" as="geometry" />
        </mxCell>
        <mxCell id="37lC6BA61AARFOCetgNf-1" value="Prompt are you shure ?" style="rounded=1;whiteSpace=wrap;html=1;" vertex="1" parent="1">
          <mxGeometry x="10" y="1130" width="160" height="60" as="geometry" />
        </mxCell>
      </root>
    </mxGraphModel>
  </diagram>
  <diagram id="einf5p-jFyaMl5s9ed1z" name="Settings">
    <mxGraphModel dx="1975" dy="1185" grid="1" gridSize="10" guides="1" tooltips="1" connect="1" arrows="1" fold="1" page="1" pageScale="1" pageWidth="1200" pageHeight="1600" math="0" shadow="0">
      <root>
        <mxCell id="0" />
        <mxCell id="1" parent="0" />
        <mxCell id="rifur4L_r3AJqG5Z70S--1" value="" style="endArrow=none;html=1;rounded=0;" edge="1" parent="1">
          <mxGeometry width="50" height="50" relative="1" as="geometry">
            <mxPoint x="40" y="800" as="sourcePoint" />
            <mxPoint x="1160" y="800" as="targetPoint" />
          </mxGeometry>
        </mxCell>
        <mxCell id="gCdTmbHZw0-P5qsK333e-1" value="" style="rounded=0;whiteSpace=wrap;html=1;" vertex="1" parent="1">
          <mxGeometry x="200" y="960" width="840" height="480" as="geometry" />
        </mxCell>
        <mxCell id="gCdTmbHZw0-P5qsK333e-5" value="&lt;font style=&quot;font-size: 56px;&quot;&gt;Settings&lt;/font&gt;" style="text;html=1;strokeColor=none;fillColor=none;align=center;verticalAlign=middle;whiteSpace=wrap;rounded=0;fontSize=64;" vertex="1" parent="1">
          <mxGeometry x="445" y="960" width="310" height="70" as="geometry" />
        </mxCell>
        <mxCell id="gCdTmbHZw0-P5qsK333e-14" value="Colors" style="rounded=1;whiteSpace=wrap;html=1;" vertex="1" parent="1">
          <mxGeometry x="270" y="1060" width="230" height="60" as="geometry" />
        </mxCell>
        <mxCell id="gCdTmbHZw0-P5qsK333e-19" value="?import list" style="rounded=1;whiteSpace=wrap;html=1;" vertex="1" parent="1">
          <mxGeometry x="270" y="1140" width="230" height="60" as="geometry" />
        </mxCell>
        <mxCell id="gCdTmbHZw0-P5qsK333e-20" value="Exit" style="rounded=1;whiteSpace=wrap;html=1;" vertex="1" parent="1">
          <mxGeometry x="485" y="1360" width="230" height="60" as="geometry" />
        </mxCell>
        <mxCell id="gCdTmbHZw0-P5qsK333e-21" value="?export list" style="rounded=1;whiteSpace=wrap;html=1;" vertex="1" parent="1">
          <mxGeometry x="270" y="1210" width="230" height="60" as="geometry" />
        </mxCell>
        <mxCell id="gCdTmbHZw0-P5qsK333e-22" value="time etc..." style="rounded=1;whiteSpace=wrap;html=1;" vertex="1" parent="1">
          <mxGeometry x="720" y="1060" width="230" height="60" as="geometry" />
        </mxCell>
      </root>
    </mxGraphModel>
  </diagram>
  <diagram id="_WTI7B93JpzufQJdCk4c" name="Play">
    <mxGraphModel dx="2440" dy="1464" grid="1" gridSize="10" guides="1" tooltips="1" connect="1" arrows="1" fold="1" page="1" pageScale="1" pageWidth="1200" pageHeight="1600" math="0" shadow="0">
      <root>
        <mxCell id="0" />
        <mxCell id="1" parent="0" />
        <mxCell id="qRmyMZ_Bb6f4S-KCIsgV-1" value="" style="rounded=0;whiteSpace=wrap;html=1;" vertex="1" parent="1">
          <mxGeometry x="200" y="960" width="840" height="480" as="geometry" />
        </mxCell>
        <mxCell id="qRmyMZ_Bb6f4S-KCIsgV-5" value="&lt;font style=&quot;font-size: 56px;&quot;&gt;List name&lt;/font&gt;" style="text;html=1;strokeColor=none;fillColor=none;align=center;verticalAlign=middle;whiteSpace=wrap;rounded=0;fontSize=64;" vertex="1" parent="1">
          <mxGeometry x="445" y="972.5" width="310" height="70" as="geometry" />
        </mxCell>
        <mxCell id="qRmyMZ_Bb6f4S-KCIsgV-15" value="Back" style="rounded=1;whiteSpace=wrap;html=1;" vertex="1" parent="1">
          <mxGeometry x="470" y="1360" width="230" height="60" as="geometry" />
        </mxCell>
        <mxCell id="qvJ8Xp8vA46BovuaNo_2-1" value="" style="endArrow=none;html=1;rounded=0;" edge="1" parent="1">
          <mxGeometry width="50" height="50" relative="1" as="geometry">
            <mxPoint x="40" y="800" as="sourcePoint" />
            <mxPoint x="1160" y="800" as="targetPoint" />
          </mxGeometry>
        </mxCell>
        <mxCell id="qvJ8Xp8vA46BovuaNo_2-2" value="Card" style="rounded=1;whiteSpace=wrap;html=1;" vertex="1" parent="1">
          <mxGeometry x="250" y="1080" width="140" height="80" as="geometry" />
        </mxCell>
        <mxCell id="qvJ8Xp8vA46BovuaNo_2-3" value="Write" style="rounded=1;whiteSpace=wrap;html=1;" vertex="1" parent="1">
          <mxGeometry x="260" y="1185" width="120" height="100" as="geometry" />
        </mxCell>
        <mxCell id="qvJ8Xp8vA46BovuaNo_2-4" value="eddit" style="rounded=1;whiteSpace=wrap;html=1;" vertex="1" parent="1">
          <mxGeometry x="210" y="975" width="100" height="40" as="geometry" />
        </mxCell>
        <mxCell id="qvJ8Xp8vA46BovuaNo_2-5" value="delete" style="rounded=1;whiteSpace=wrap;html=1;" vertex="1" parent="1">
          <mxGeometry x="900" y="975" width="130" height="65" as="geometry" />
        </mxCell>
        <mxCell id="qvJ8Xp8vA46BovuaNo_2-7" value="Write" style="rounded=1;whiteSpace=wrap;html=1;" vertex="1" parent="1">
          <mxGeometry x="420" y="1180" width="145" height="110" as="geometry" />
        </mxCell>
        <mxCell id="qvJ8Xp8vA46BovuaNo_2-8" value="Write" style="rounded=1;whiteSpace=wrap;html=1;" vertex="1" parent="1">
          <mxGeometry x="420" y="1080" width="140" height="90" as="geometry" />
        </mxCell>
        <mxCell id="qvJ8Xp8vA46BovuaNo_2-9" value="Stats" style="rounded=1;whiteSpace=wrap;html=1;" vertex="1" parent="1">
          <mxGeometry x="680" y="1090" width="320" height="240" as="geometry" />
        </mxCell>
      </root>
    </mxGraphModel>
  </diagram>
  <diagram id="_EkyjvyqXXoJjmZwdPrV" name="Edit">
    <mxGraphModel dx="2074" dy="1244" grid="1" gridSize="10" guides="1" tooltips="1" connect="1" arrows="1" fold="1" page="1" pageScale="1" pageWidth="1200" pageHeight="1600" math="0" shadow="0">
      <root>
        <mxCell id="0" />
        <mxCell id="1" parent="0" />
        <mxCell id="CRPFGeZhPuzqCSQ7Z16m-2" value="" style="rounded=0;whiteSpace=wrap;html=1;" vertex="1" parent="1">
          <mxGeometry x="200" y="960" width="840" height="480" as="geometry" />
        </mxCell>
        <mxCell id="CRPFGeZhPuzqCSQ7Z16m-10" value="" style="rounded=0;whiteSpace=wrap;html=1;" vertex="1" parent="1">
          <mxGeometry x="210" y="1050" width="370" height="390" as="geometry" />
        </mxCell>
        <mxCell id="CRPFGeZhPuzqCSQ7Z16m-1" value="" style="endArrow=none;html=1;rounded=0;" edge="1" parent="1">
          <mxGeometry width="50" height="50" relative="1" as="geometry">
            <mxPoint x="40" y="800" as="sourcePoint" />
            <mxPoint x="1160" y="800" as="targetPoint" />
          </mxGeometry>
        </mxCell>
        <mxCell id="CRPFGeZhPuzqCSQ7Z16m-3" value="&lt;font style=&quot;font-size: 56px;&quot;&gt;Eddit&lt;/font&gt;" style="text;html=1;strokeColor=none;fillColor=none;align=center;verticalAlign=middle;whiteSpace=wrap;rounded=0;fontSize=64;" vertex="1" parent="1">
          <mxGeometry x="445" y="960" width="310" height="70" as="geometry" />
        </mxCell>
        <mxCell id="CRPFGeZhPuzqCSQ7Z16m-9" value="delete" style="rounded=1;whiteSpace=wrap;html=1;" vertex="1" parent="1">
          <mxGeometry x="755" y="1050" width="230" height="60" as="geometry" />
        </mxCell>
        <mxCell id="CRPFGeZhPuzqCSQ7Z16m-14" value="" style="rounded=0;whiteSpace=wrap;html=1;" vertex="1" parent="1">
          <mxGeometry x="220" y="1100" width="350" height="40" as="geometry" />
        </mxCell>
        <mxCell id="CRPFGeZhPuzqCSQ7Z16m-15" value="" style="rounded=0;whiteSpace=wrap;html=1;" vertex="1" parent="1">
          <mxGeometry x="220" y="1140" width="350" height="40" as="geometry" />
        </mxCell>
        <mxCell id="CRPFGeZhPuzqCSQ7Z16m-16" value="" style="rounded=0;whiteSpace=wrap;html=1;" vertex="1" parent="1">
          <mxGeometry x="220" y="1180" width="350" height="40" as="geometry" />
        </mxCell>
        <mxCell id="CRPFGeZhPuzqCSQ7Z16m-17" value="" style="rounded=0;whiteSpace=wrap;html=1;" vertex="1" parent="1">
          <mxGeometry x="220" y="1220" width="350" height="40" as="geometry" />
        </mxCell>
        <mxCell id="CRPFGeZhPuzqCSQ7Z16m-18" value="" style="rounded=0;whiteSpace=wrap;html=1;" vertex="1" parent="1">
          <mxGeometry x="220" y="1260" width="350" height="40" as="geometry" />
        </mxCell>
        <mxCell id="CRPFGeZhPuzqCSQ7Z16m-19" value="" style="rounded=0;whiteSpace=wrap;html=1;" vertex="1" parent="1">
          <mxGeometry x="220" y="1300" width="350" height="40" as="geometry" />
        </mxCell>
        <mxCell id="CRPFGeZhPuzqCSQ7Z16m-20" value="" style="rounded=0;whiteSpace=wrap;html=1;" vertex="1" parent="1">
          <mxGeometry x="220" y="1340" width="350" height="40" as="geometry" />
        </mxCell>
        <mxCell id="CRPFGeZhPuzqCSQ7Z16m-21" value="" style="rounded=0;whiteSpace=wrap;html=1;" vertex="1" parent="1">
          <mxGeometry x="220" y="1370" width="350" height="40" as="geometry" />
        </mxCell>
        <mxCell id="CRPFGeZhPuzqCSQ7Z16m-22" value="" style="rounded=0;whiteSpace=wrap;html=1;" vertex="1" parent="1">
          <mxGeometry x="220" y="1410" width="350" height="30" as="geometry" />
        </mxCell>
        <mxCell id="CRPFGeZhPuzqCSQ7Z16m-6" value="Back Home" style="rounded=1;whiteSpace=wrap;html=1;" vertex="1" parent="1">
          <mxGeometry x="755" y="1360" width="230" height="60" as="geometry" />
        </mxCell>
        <mxCell id="CRPFGeZhPuzqCSQ7Z16m-13" value="" style="rounded=0;whiteSpace=wrap;html=1;" vertex="1" parent="1">
          <mxGeometry x="220" y="1060" width="350" height="40" as="geometry" />
        </mxCell>
        <mxCell id="CRPFGeZhPuzqCSQ7Z16m-11" value="Word 1" style="text;html=1;strokeColor=none;fillColor=none;align=center;verticalAlign=middle;whiteSpace=wrap;rounded=0;" vertex="1" parent="1">
          <mxGeometry x="260" y="1070" width="60" height="30" as="geometry" />
        </mxCell>
        <mxCell id="CRPFGeZhPuzqCSQ7Z16m-12" value="Translation" style="text;html=1;strokeColor=none;fillColor=none;align=center;verticalAlign=middle;whiteSpace=wrap;rounded=0;" vertex="1" parent="1">
          <mxGeometry x="470" y="1065" width="60" height="30" as="geometry" />
        </mxCell>
        <mxCell id="CRPFGeZhPuzqCSQ7Z16m-23" value="add" style="rounded=1;whiteSpace=wrap;html=1;" vertex="1" parent="1">
          <mxGeometry x="755" y="1120" width="230" height="60" as="geometry" />
        </mxCell>
        <mxCell id="CRPFGeZhPuzqCSQ7Z16m-26" value="Play" style="rounded=1;whiteSpace=wrap;html=1;" vertex="1" parent="1">
          <mxGeometry x="755" y="1290" width="230" height="60" as="geometry" />
        </mxCell>
      </root>
    </mxGraphModel>
  </diagram>
</mxfile>
